HIERARCHY
ROOT Hips
{
	OFFSET 0.00000 0.00000 0.00000
	CHANNELS 6 Xposition Yposition Zposition Zrotation Yrotation Xrotation 
	JOINT LHipJoint
	{
		OFFSET 0 0 0
		CHANNELS 3 Zrotation Yrotation Xrotation
		JOINT LeftUpLeg
		{
			OFFSET 1.84395 -1.68683 0.74144
			CHANNELS 3 Zrotation Yrotation Xrotation
			JOINT LeftLeg
			{
				OFFSET 2.27037 -6.23779 0.00000
				CHANNELS 3 Zrotation Yrotation Xrotation
				JOINT LeftFoot
				{
					OFFSET 2.56918 -7.05877 0.00000
					CHANNELS 3 Zrotation Yrotation Xrotation
					JOINT LeftToeBase
					{
						OFFSET 0.22276 -0.61202 1.71784
						CHANNELS 3 Zrotation Yrotation Xrotation
						End Site
						{
							OFFSET 0.00000 -0.00000 0.91613
						}
					}
				}
			}
		}
	}
	JOINT RHipJoint
	{
		OFFSET 0 0 0
		CHANNELS 3 Zrotation Yrotation Xrotation
		JOINT RightUpLeg
		{
			OFFSET -1.76833 -1.68684 0.74144
			CHANNELS 3 Zrotation Yrotation Xrotation
			JOINT RightLeg
			{
				OFFSET -2.49360 -6.85110 0.00000
				CHANNELS 3 Zrotation Yrotation Xrotation
				JOINT RightFoot
				{
					OFFSET -2.55538 -7.02085 0.00000
					CHANNELS 3 Zrotation Yrotation Xrotation
					JOINT RightToeBase
					{
						OFFSET -0.21516 -0.59115 1.68050
						CHANNELS 3 Zrotation Yrotation Xrotation
						End Site
						{
							OFFSET -0.00000 -0.00000 0.89604
						}
					}
				}
			}
		}
	}
	JOINT LowerBack
	{
		OFFSET 0 0 0
		CHANNELS 3 Zrotation Yrotation Xrotation
		JOINT Spine
		{
			OFFSET 0.06382 1.72312 -0.19613
			CHANNELS 3 Zrotation Yrotation Xrotation
			JOINT Spine1
			{
				OFFSET -0.00055 1.73507 0.23859
				CHANNELS 3 Zrotation Yrotation Xrotation
				JOINT Neck
				{
					OFFSET 0 0 0
					CHANNELS 3 Zrotation Yrotation Xrotation
					JOINT Neck1
					{
						OFFSET 0.03638 1.65562 0.09633
						CHANNELS 3 Zrotation Yrotation Xrotation
						JOINT Head
						{
							OFFSET 0.06388 1.62807 -0.32386
							CHANNELS 3 Zrotation Yrotation Xrotation
							End Site
							{
								OFFSET 0.00995 1.67644 -0.12021
							}
						}
					}
				}
				JOINT LeftShoulder
				{
					OFFSET 0 0 0
					CHANNELS 3 Zrotation Yrotation Xrotation
					JOINT LeftArm
					{
						OFFSET 3.09648 1.42991 0.28122
						CHANNELS 3 Zrotation Yrotation Xrotation
						JOINT LeftForeArm
						{
							OFFSET 5.11878 -0.00000 -0.00000
							CHANNELS 3 Zrotation Yrotation Xrotation
							JOINT LeftHand
							{
								OFFSET 3.59971 -0.00000 0.00000
								CHANNELS 3 Zrotation Yrotation Xrotation
								JOINT LeftFingerBase
								{
									OFFSET 0 0 0
									CHANNELS 3 Zrotation Yrotation Xrotation
									JOINT LeftHandIndex1
									{
										OFFSET 0.62877 -0.00000 0.00000
										CHANNELS 3 Zrotation Yrotation Xrotation
										End Site
										{
											OFFSET 0.50693 -0.00000 0.00000
										}
									}
								}
								JOINT LThumb
								{
									OFFSET 0 0 0
									CHANNELS 3 Zrotation Yrotation Xrotation
									End Site
									{
										OFFSET 0.51467 -0.00000 0.51467
									}
								}
							}
						}
					}
				}
				JOINT RightShoulder
				{
					OFFSET 0 0 0
					CHANNELS 3 Zrotation Yrotation Xrotation
					JOINT RightArm
					{
						OFFSET -3.33565 1.14597 0.05047
						CHANNELS 3 Zrotation Yrotation Xrotation
						JOINT RightForeArm
						{
							OFFSET -5.49020 -0.00000 0.00000
							CHANNELS 3 Zrotation Yrotation Xrotation
							JOINT RightHand
							{
								OFFSET -3.20659 -0.00000 -0.00000
								CHANNELS 3 Zrotation Yrotation Xrotation
								JOINT RightFingerBase
								{
									OFFSET 0 0 0
									CHANNELS 3 Zrotation Yrotation Xrotation
									JOINT RightHandIndex1
									{
										OFFSET -0.69188 -0.00000 0.00000
										CHANNELS 3 Zrotation Yrotation Xrotation
										End Site
										{
											OFFSET -0.55781 -0.00000 0.00000
										}
									}
								}
								JOINT RThumb
								{
									OFFSET 0 0 0
									CHANNELS 3 Zrotation Yrotation Xrotation
									End Site
									{
										OFFSET -0.56633 -0.00000 0.56633
									}
								}
							}
						}
					}
				}
			}
		}
	}
}
MOTION
Frames: 14
Frame Time: .0083333
1.0133 17.5740 7.8079 -8.2402 25.1503 9.6269 0.0000 0.0000 0.0000 -15.8466 -40.8022 9.2675 0.0579 -1.5532 -4.2723 -2.4033 26.1819 -10.2151 0.3756 -3.9361 -10.8970 0.0000 0.0000 0.0000 24.8030 24.4696 12.0942 -0.0083 0.5887 -1.6178 -2.2034 -31.5596 -51.7108 -2.1225 -9.1167 26.1610 0.4594 8.5147 6.9096 -4.1791 11.3436 -10.9314 -7.0929 5.0393 -15.0016 -6.0633 -10.7738 -14.5432 15.9556 -15.5681 9.1361 4.3299 -6.5507 6.9850 -0.0000 -0.0000 0.0000 -76.1891 5.2672 52.2367 59.8927 -56.2813 -34.2518 -0.0000 0.0000 -13.6491 28.6957 -19.9151 -10.5617 -7.1250 0.0000 -0.0000 0.1869 7.5383 -0.1607 -0.0000 -0.0000 0.0000 88.7163 68.3660 32.7759 -26.8791 38.0637 -9.4245 0.0000 0.0000 58.6449 -49.9141 -36.7952 35.4371 7.1250 -0.0000 -0.0000 -36.3097 -77.0350 27.9033
1.0092 17.5749 7.8122 -8.0892 24.6413 9.7336 0.0000 0.0000 0.0000 -16.2451 -41.2062 9.7766 0.0592 -1.5694 -4.3170 -2.5939 27.0990 -10.6907 0.3394 -3.7440 -10.3574 0.0000 0.0000 0.0000 24.8503 25.1837 12.5682 -0.0106 0.6646 -1.8265 -2.2825 -31.7156 -52.1110 -2.1531 -9.1780 26.3537 0.2915 8.6507 7.0175 -4.2397 11.4968 -10.9466 -7.1243 5.1177 -15.0959 -6.0758 -10.7625 -14.5287 15.9937 -15.5585 9.1481 4.3458 -6.5438 6.9900 0.0000 0.0000 0.0000 -76.1393 5.2031 52.3092 59.6615 -56.2191 -34.0596 -0.0000 0.0000 -13.4492 28.8804 -20.1586 -10.7628 -7.1250 0.0000 -0.0000 0.2731 7.2340 -0.2366 0.0000 0.0000 0.0000 90.6625 68.0626 33.3263 -27.0419 38.2191 -9.5250 0.0000 0.0000 57.6130 -49.7311 -37.2069 35.5199 7.1250 -0.0000 -0.0000 -36.2056 -77.4187 28.0896
1.0025 17.5764 7.8163 -8.1162 24.3003 9.7061 0.0000 0.0000 0.0000 -16.3803 -41.3764 10.1191 0.0594 -1.5726 -4.3259 -2.7066 27.6211 -11.0238 0.3146 -3.6058 -9.9702 0.0000 0.0000 0.0000 25.2037 25.9519 13.1648 -0.0126 0.7241 -1.9898 -2.4346 -31.9071 -52.7631 -2.2163 -9.3027 26.7470 0.1852 8.7194 7.1673 -4.1919 11.5787 -10.9376 -7.0622 5.1613 -15.2060 -6.0855 -10.7493 -14.4266 16.0157 -15.5348 9.0869 4.3625 -6.5400 6.9531 0.0000 0.0000 0.0000 -76.1613 5.1536 52.2775 59.5407 -56.1863 -33.9592 -0.0000 0.0000 -13.3487 28.7742 -20.2642 -10.7693 -7.1250 0.0000 -0.0000 0.1921 7.1384 -0.1668 0.0000 0.0000 0.0000 93.1139 67.5684 33.7675 -27.5491 38.6978 -9.8405 0.0000 0.0000 55.4552 -49.7972 -38.0691 36.1140 7.1250 -0.0000 -0.0000 -37.5108 -78.3221 29.7991
0.9966 17.5773 7.8214 -8.2325 24.1351 9.6614 0.0000 0.0000 0.0000 -16.3108 -41.4266 10.2670 0.0600 -1.5809 -4.3488 -2.7649 27.8852 -11.0794 0.3114 -3.5872 -9.9181 0.0000 0.0000 0.0000 25.6402 26.6242 13.6953 -0.0144 0.7747 -2.1291 -2.6277 -32.0532 -53.4815 -2.2999 -9.4647 27.2601 0.1722 8.7274 7.2173 -4.0908 11.5967 -10.8750 -6.9480 5.1786 -15.1847 -6.1600 -10.7642 -14.2587 16.0584 -15.5248 8.9095 4.3972 -6.5533 6.8763 0.0000 -0.0000 0.0000 -76.2940 5.0694 52.1438 59.5436 -56.1871 -33.9616 -0.0000 0.0000 -13.3977 28.6238 -20.0612 -10.6035 -7.1250 0.0000 -0.0000 0.1226 7.3912 -0.1058 0.0000 -0.0000 0.0000 95.7446 66.9981 34.0186 -28.2624 39.3567 -10.2897 0.0000 0.0000 53.0913 -50.5642 -38.9423 37.3878 7.1250 -0.0000 -0.0000 -41.6740 -79.3600 34.0754
0.9931 17.5781 7.8265 -8.3087 24.1232 9.6738 0.0000 0.0000 0.0000 -16.1982 -41.4788 10.2508 0.0601 -1.5824 -4.3530 -2.7881 27.9896 -11.0225 0.3189 -3.6302 -10.0385 0.0000 0.0000 0.0000 25.9458 27.0991 14.0520 -0.0162 0.8219 -2.2590 -2.8248 -32.1414 -54.1430 -2.3811 -9.6185 27.7498 0.1682 8.6850 7.2539 -3.9840 11.5494 -10.8352 -6.8224 5.1633 -15.1884 -6.1787 -10.7395 -14.2479 15.9573 -15.4650 8.8676 4.3772 -6.5368 6.8457 -0.0000 -0.0000 0.0000 -76.4852 5.0974 52.0002 59.6405 -56.2134 -34.0421 -0.0000 0.0000 -13.5254 28.7018 -19.9148 -10.5642 -7.1250 0.0000 -0.0000 0.1908 7.5374 -0.1641 -0.0000 -0.0000 0.0000 98.0025 66.2958 34.0647 -28.8886 39.9215 -10.6891 0.0000 0.0000 51.4190 -51.7325 -39.6137 38.9484 7.1250 -0.0000 -0.0000 -47.8492 -80.1965 40.1187
0.9914 17.5788 7.8316 -8.3823 24.2208 9.7026 0.0000 0.0000 0.0000 -16.0781 -41.6115 10.2222 0.0599 -1.5794 -4.3445 -2.7997 28.0417 -11.0710 0.3152 -3.6093 -9.9800 0.0000 0.0000 0.0000 26.0928 27.2158 14.1240 -0.0173 0.8488 -2.3329 -2.9210 -32.1735 -54.4509 -2.4231 -9.6967 28.0000 0.2102 8.6135 7.2892 -3.8984 11.4679 -10.8152 -6.7404 5.1248 -15.2041 -6.0552 -10.6856 -14.3555 15.7395 -15.3952 8.9862 4.2940 -6.5049 6.8633 -0.0000 -0.0000 0.0000 -76.6269 5.2051 51.9158 59.7912 -56.2540 -34.1674 -0.0000 0.0000 -13.7081 28.8987 -19.9032 -10.6428 -7.1250 0.0000 -0.0000 0.3176 7.5123 -0.2733 -0.0000 -0.0000 0.0000 99.2657 65.6505 33.8857 -29.1370 40.1421 -10.8489 0.0000 0.0000 50.8724 -52.4304 -39.9347 39.8436 7.1250 -0.0000 -0.0000 -51.7805 -80.5715 43.9441
0.9900 17.5790 7.8389 -8.4915 24.3506 9.7377 0.0000 0.0000 0.0000 -15.9134 -41.7806 10.2227 0.0612 -1.5965 -4.3917 -2.8209 28.1360 -11.0811 0.3200 -3.6362 -10.0553 0.0000 0.0000 0.0000 26.1538 27.0871 13.9778 -0.0175 0.8551 -2.3503 -2.9249 -32.1440 -54.4352 -2.4385 -9.7252 28.0915 0.0328 8.4741 7.1273 -3.6406 11.2813 -10.7459 -6.2939 5.0817 -15.1261 -6.0456 -10.5477 -14.2958 15.6100 -15.1855 8.9760 4.2840 -6.4191 6.8131 0.0000 0.0000 0.0000 -77.0019 5.3885 51.6283 59.8604 -56.2726 -34.2250 -0.0000 0.0000 -13.7625 29.2179 -20.0919 -10.8758 -7.1250 0.0000 -0.0000 0.4960 7.2414 -0.4296 0.0000 0.0000 0.0000 99.7116 65.1317 34.1061 -28.9822 40.0049 -10.7493 0.0000 0.0000 51.6459 -52.1488 -40.0314 39.6142 7.1250 -0.0000 -0.0000 -50.7659 -80.6353 43.0897
0.9881 17.5785 7.8474 -8.5133 24.4603 9.8440 0.0000 0.0000 0.0000 -15.8131 -41.9542 10.1927 0.0632 -1.6215 -4.4606 -2.8487 28.2599 -11.0107 0.3276 -3.6787 -10.1745 0.0000 0.0000 0.0000 26.1069 27.0135 13.8159 -0.0179 0.8634 -2.3729 -2.9252 -32.1157 -54.4098 -2.4554 -9.7564 28.1914 -0.6923 8.2182 6.6184 -3.0484 10.8976 -10.5396 -5.0866 5.0424 -14.8549 -6.1663 -10.2343 -14.2268 15.3160 -14.6723 8.8911 4.2848 -6.2111 6.6983 -0.0000 -0.0000 0.0000 -77.9641 5.5930 50.8384 59.7517 -56.2434 -34.1345 -0.0000 0.0000 -13.5904 29.6168 -20.6022 -11.3116 -7.1250 0.0000 -0.0000 0.6801 6.5968 -0.5976 -0.0000 -0.0000 0.0000 99.7551 64.6497 35.4174 -28.6704 39.7261 -10.5494 0.0000 0.0000 52.8337 -50.8783 -40.1937 38.4326 7.1250 -0.0000 -0.0000 -45.4791 -80.6382 38.3893
0.9865 17.5780 7.8545 -8.5102 24.5364 9.9423 0.0000 0.0000 0.0000 -15.8141 -42.2409 10.2801 0.0646 -1.6399 -4.5116 -2.9094 28.5279 -10.9760 0.3376 -3.7336 -10.3285 0.0000 0.0000 0.0000 25.9555 26.7717 13.5387 -0.0178 0.8614 -2.3675 -2.8092 -32.0971 -54.0563 -2.4073 -9.6673 27.9061 -0.0285 8.3491 6.8425 -3.5758 11.1091 -10.6862 -6.0964 5.0287 -14.9117 -6.0779 -10.4749 -14.1966 15.6202 -15.0822 8.9719 4.3110 -6.3763 6.7866 -0.0000 -0.0000 0.0000 -77.1627 5.5626 51.6865 59.6902 -56.2268 -34.0834 -0.0000 0.0000 -13.7843 29.7997 -20.9529 -11.5740 -7.1250 0.0000 -0.0000 0.7470 6.1710 -0.6624 -0.0000 -0.0000 0.0000 98.0245 63.9313 33.6739 -28.4905 39.5639 -10.4346 0.0000 0.0000 53.6065 -48.9900 -40.4386 36.7194 7.1250 -0.0000 -0.0000 -37.8911 -80.5539 31.6979
0.9849 17.5794 7.8592 -8.4626 24.5740 10.0225 0.0000 0.0000 0.0000 -15.9630 -42.6526 10.5215 0.0659 -1.6566 -4.5575 -3.0126 28.9747 -11.0005 0.3548 -3.8267 -10.5897 0.0000 0.0000 0.0000 25.6756 26.3198 13.1218 -0.0166 0.8328 -2.2889 -2.6530 -31.9308 -53.4405 -2.3370 -9.5353 27.4847 0.1862 8.3553 6.9391 -3.7606 11.1261 -10.7104 -6.4316 4.9990 -14.9172 -6.0619 -10.5584 -14.2294 15.6825 -15.2291 9.0936 4.3052 -6.4330 6.8523 -0.0000 0.0000 0.0000 -76.8880 5.6009 52.0108 59.6357 -56.2121 -34.0381 -0.0000 0.0000 -13.8880 29.8827 -21.0117 -11.6421 -7.1250 0.0000 -0.0000 0.7908 6.0886 -0.7025 -0.0000 0.0000 0.0000 96.8741 63.3037 33.3617 -28.3217 39.4107 -10.3273 0.0000 0.0000 53.4084 -46.3597 -40.8161 34.4274 7.1250 -0.0000 -0.0000 -28.0245 -80.3183 23.1387
0.9813 17.5805 7.8640 -8.3703 24.5924 10.0961 0.0000 0.0000 0.0000 -16.1462 -42.9904 10.7588 0.0678 -1.6799 -4.6220 -3.1008 29.3476 -11.1001 0.3515 -3.8094 -10.5410 0.0000 0.0000 0.0000 25.5087 26.2011 12.9655 -0.0157 0.8080 -2.2207 -2.6697 -31.7608 -53.3298 -2.3446 -9.5497 27.5306 0.0999 8.3070 6.9810 -3.7758 11.0448 -10.7012 -6.3974 4.9659 -14.9539 -5.9798 -10.5203 -14.1757 15.5758 -15.1861 9.1524 4.2669 -6.4181 6.8406 -0.0000 0.0000 0.0000 -76.8350 5.7392 52.1299 59.5752 -56.1957 -33.9879 -0.0000 0.0000 -13.8600 30.1408 -21.1325 -11.8232 -7.1250 0.0000 -0.0000 0.9356 5.9001 -0.8346 -0.0000 0.0000 0.0000 96.3001 62.7409 33.6125 -28.1246 39.2307 -10.2024 0.0000 0.0000 52.4919 -43.2334 -40.9635 31.6475 7.1250 -0.0000 -0.0000 -17.4931 -79.5421 14.0875
0.9766 17.5795 7.8704 -8.3082 24.5934 10.1432 0.0000 0.0000 0.0000 -16.2440 -43.1640 10.9054 0.0693 -1.6981 -4.6722 -3.1504 29.5550 -11.1179 0.3506 -3.8046 -10.5275 0.0000 0.0000 0.0000 25.5129 26.3419 13.0346 -0.0155 0.8029 -2.2067 -2.7111 -31.7954 -53.4853 -2.3608 -9.5803 27.6279 0.0259 8.2867 7.0068 -3.7972 11.0034 -10.7003 -6.3810 4.9507 -14.9833 -5.8542 -10.4847 -14.0445 15.4637 -15.1472 9.1584 4.2233 -6.4103 6.7955 -0.0000 -0.0000 0.0000 -76.7621 5.8961 52.3085 59.5352 -56.1848 -33.9546 -0.0000 0.0000 -13.8310 30.3035 -21.1712 -11.9186 -7.1250 0.0000 -0.0000 1.0319 5.8225 -0.9221 -0.0000 -0.0000 0.0000 96.2219 62.2315 33.6122 -27.8506 38.9783 -10.0296 0.0000 0.0000 51.4305 -41.1563 -40.6394 29.6524 7.1250 -0.0000 -0.0000 -11.7143 -78.5104 9.1662
0.9729 17.5776 7.8776 -8.2814 24.5509 10.1755 0.0000 0.0000 0.0000 -16.3414 -43.3462 11.0829 0.0696 -1.7019 -4.6826 -3.2090 29.7970 -11.1500 0.3615 -3.8626 -10.6904 0.0000 0.0000 0.0000 25.5558 26.4622 13.1148 -0.0158 0.8114 -2.2301 -2.7039 -31.8866 -53.5500 -2.3690 -9.5958 27.6774 0.0048 8.2939 7.0070 -3.8220 11.0064 -10.6880 -6.3957 4.9536 -14.9670 -5.8620 -10.4892 -13.9602 15.4981 -15.1679 9.2130 4.2357 -6.4195 6.8045 0.0000 0.0000 0.0000 -76.6852 6.0292 52.4672 59.5224 -56.1813 -33.9440 -0.0000 0.0000 -13.8425 30.1259 -20.9190 -11.7055 -7.1250 0.0000 -0.0000 0.9566 6.1401 -0.8489 0.0000 0.0000 0.0000 96.3901 61.7771 33.3817 -27.6795 38.8195 -9.9221 0.0000 0.0000 50.8758 -41.1148 -40.3570 29.4746 7.1250 -0.0000 -0.0000 -11.7882 -78.2013 9.1497
0.9685 17.5746 7.8849 -8.3966 24.4964 10.1444 0.0000 0.0000 0.0000 -16.2749 -43.5160 11.2528 0.0701 -1.7082 -4.6999 -3.2712 30.0491 -11.2527 0.3739 -3.9275 -10.8728 0.0000 0.0000 0.0000 25.7903 26.6713 13.2603 -0.0162 0.8224 -2.2604 -2.7331 -31.9940 -53.7369 -2.3928 -9.6404 27.8198 0.1352 8.3108 7.0331 -3.8302 11.0472 -10.6886 -6.4830 4.9586 -14.9526 -5.8800 -10.5014 -13.8981 15.5536 -15.2040 9.2927 4.2531 -6.4323 6.8299 0.0000 0.0000 0.0000 -76.5599 6.1620 52.6073 59.5005 -56.1753 -33.9258 -0.0000 0.0000 -13.8902 30.0781 -20.8811 -11.6639 -7.1250 0.0000 -0.0000 0.9319 6.1922 -0.8260 0.0000 0.0000 0.0000 96.5234 61.2864 33.0899 -27.8474 38.9753 -10.0275 0.0000 0.0000 50.9178 -42.4459 -40.5568 30.7387 7.1250 -0.0000 -0.0000 -15.3040 -78.8589 12.1016
